<svg width="484" height="562" viewBox="0 0 484 562" fill="none" xmlns="http://www.w3.org/2000/svg">
    <path
        d="M165.001 561.5C-2.08997 561.5 37.0005 291.5 37.0005 291.5C37.0005 291.5 53.1504 297.705 64 299.5C75.3725 301.382 93.5 300.5 93.5 300.5C93.5 300.5 64.3993 504.5 165.001 504.5C175.625 504.5 185.348 500.477 192.5 493C213.722 470.813 218.616 421.268 220.5 378C222.314 336.341 221.5 300.5 221.5 300.5V271.5C221.5 271.5 221.208 230.669 224 181.5C225.666 152.166 225.822 120.507 235 91C250.505 41.1545 275.329 0 341.5 0C508.5 0 465 271.5 465 271.5C465 271.5 449.026 263.705 438 261.5C426.505 259.201 408 260.5 408 260.5C408 260.5 435.515 56.5 341.5 56.5C327.787 56.5 314.534 60.2249 306 70.5C288.902 91.0846 284.413 128.374 281.5 164.5C277.543 213.573 279 260.5 279 260.5V291.5C279 291.5 279.146 314.3 278.5 347.5C277.996 373.423 277.576 405.883 272.5 437.5C262.523 499.647 242.346 561.5 165.001 561.5Z"
        fill="#EE6C4D" />
    <path
        d="M484 365C484 398.966 456.018 426.5 421.5 426.5C386.982 426.5 359 398.966 359 365C359 331.034 386.982 303.5 421.5 303.5C456.018 303.5 484 331.034 484 365Z"
        fill="#EE6C4D" />
    <path fill-rule="evenodd" clip-rule="evenodd"
        d="M71 251.5C110.212 251.5 142 219.712 142 180.5C142 141.288 110.212 109.5 71 109.5C31.7876 109.5 0 141.288 0 180.5C0 219.712 31.7876 251.5 71 251.5ZM71 215.5C90.3301 215.5 106 199.83 106 180.5C106 161.17 90.3301 145.5 71 145.5C51.6699 145.5 36 161.17 36 180.5C36 199.83 51.6699 215.5 71 215.5Z"
        fill="#EE6C4D" />
</svg>
    